<svg xmlns="http://www.w3.org/2000/svg" viewBox="0 0 820 398" width="820" height="398" role="img" aria-label="Buccal mucosa graft ureteroplasty. On the left, a ureteral stricture is opened by a non-transecting longitudinal ureterotomy across the narrowing. In the middle, a buccal mucosa graft is sewn in as an onlay patch over a double-J stent, widening the caliber, with suture lines around the graft. The cross-section inset shows the buccal graft replacing the dorsal arc of the ureter wall around the lumen, the whole repair wrapped in a lobulated ring of omentum or perinephric fat that supplies the free graft; the graft may be placed as a dorsal or ventral onlay.">
<defs>
<marker id="ah" viewBox="0 0 10 10" refX="8" refY="5" markerWidth="7" markerHeight="7" orient="auto-start-reverse"><path d="M0,0 L10,5 L0,10 z" fill="#0F766E"/></marker>
</defs>
<rect x="1" y="1" width="818" height="396" rx="14" fill="#FFFFFF" stroke="#E2E8F0" stroke-width="1.5"/>
<text x="40" y="36" text-anchor="start" font-family="-apple-system, 'Segoe UI', Roboto, Helvetica, Arial, sans-serif" font-size="16" font-weight="700" fill="#1E293B">Buccal mucosa graft ureteroplasty</text>
<text x="40" y="55" text-anchor="start" font-family="-apple-system, 'Segoe UI', Roboto, Helvetica, Arial, sans-serif" font-size="12.5" font-weight="500" fill="#64748B">open the stricture longitudinally, patch it with an onlay graft over a stent, and wrap the free graft for vascular take</text>
<path d="M 137 108 C 137 172 145 194 145 208 C 145 222 137 244 137 308 L 163 308 C 163 244 155 222 155 208 C 155 194 163 172 163 108 Z" fill="#E2ECF5" stroke="#7FA3C4" stroke-width="2.4"/>
<ellipse cx="150" cy="208" rx="20" ry="16" fill="none" stroke="#B91C1C" stroke-width="1.4" stroke-dasharray="3 3"/>
<line x1="150" y1="168" x2="150" y2="248" stroke="#475569" stroke-width="2.4"/>
<line x1="146" y1="208" x2="124" y2="208" stroke="#0F766E" stroke-width="2" marker-end="url(#ah)"/>
<line x1="154" y1="208" x2="176" y2="208" stroke="#0F766E" stroke-width="2" marker-end="url(#ah)"/>
<text x="150" y="156" text-anchor="middle" font-family="-apple-system, 'Segoe UI', Roboto, Helvetica, Arial, sans-serif" font-size="10" font-weight="700" fill="#B91C1C" paint-order="stroke" stroke="#FFFFFF" stroke-width="3.2" stroke-linejoin="round">stricture</text>
<text x="150" y="334" text-anchor="middle" font-family="-apple-system, 'Segoe UI', Roboto, Helvetica, Arial, sans-serif" font-size="10.5" font-weight="600" fill="#1E293B" paint-order="stroke" stroke="#FFFFFF" stroke-width="3.2" stroke-linejoin="round">longitudinal</text>
<text x="150" y="347" text-anchor="middle" font-family="-apple-system, 'Segoe UI', Roboto, Helvetica, Arial, sans-serif" font-size="10.5" font-weight="600" fill="#1E293B" paint-order="stroke" stroke="#FFFFFF" stroke-width="3.2" stroke-linejoin="round">ureterotomy</text>
<text x="150" y="359" text-anchor="middle" font-family="-apple-system, 'Segoe UI', Roboto, Helvetica, Arial, sans-serif" font-size="8.5" font-weight="500" fill="#64748B" paint-order="stroke" stroke="#FFFFFF" stroke-width="3.2" stroke-linejoin="round">(non-transecting)</text>
<line x1="218" y1="208" x2="266" y2="208" stroke="#0F766E" stroke-width="2.6" marker-end="url(#ah)"/>
<text x="242" y="198" text-anchor="middle" font-family="-apple-system, 'Segoe UI', Roboto, Helvetica, Arial, sans-serif" font-size="10" font-weight="600" fill="#0F766E">onlay</text>
<path d="M 347 108 C 347 168 334 184 334 208 C 334 232 347 248 347 308 L 373 308 C 373 248 386 232 386 208 C 386 184 373 168 373 108 Z" fill="#E2ECF5" stroke="#7FA3C4" stroke-width="2.4"/>
<path d="M 360 158 C 338 168 338 248 360 258 C 382 248 382 168 360 158 Z" fill="#EFC4BE" stroke="#C77F77" stroke-width="2"/>
<line x1="355" y1="160" x2="365" y2="160" stroke="#185FA5" stroke-width="1.5"/>
<line x1="366.8" y1="169.2" x2="376.8" y2="169.2" stroke="#185FA5" stroke-width="1.5"/>
<line x1="374" y1="193.2" x2="384" y2="193.2" stroke="#185FA5" stroke-width="1.5"/>
<line x1="374" y1="222.8" x2="384" y2="222.8" stroke="#185FA5" stroke-width="1.5"/>
<line x1="366.8" y1="246.8" x2="376.8" y2="246.8" stroke="#185FA5" stroke-width="1.5"/>
<line x1="355" y1="256" x2="365" y2="256" stroke="#185FA5" stroke-width="1.5"/>
<path d="M 360 308 L 360 122 C 360 110 376 110 376 122 C 376 132 364 130 366 138" fill="none" stroke="#7C3AED" stroke-width="1.8" stroke-linecap="round"/>
<text x="296" y="180" text-anchor="middle" font-family="-apple-system, 'Segoe UI', Roboto, Helvetica, Arial, sans-serif" font-size="9.5" font-weight="700" fill="#C77F77" paint-order="stroke" stroke="#FFFFFF" stroke-width="3.2" stroke-linejoin="round">buccal</text>
<text x="298" y="192" text-anchor="middle" font-family="-apple-system, 'Segoe UI', Roboto, Helvetica, Arial, sans-serif" font-size="9.5" font-weight="700" fill="#C77F77" paint-order="stroke" stroke="#FFFFFF" stroke-width="3.2" stroke-linejoin="round">onlay</text>
<text x="298" y="204" text-anchor="middle" font-family="-apple-system, 'Segoe UI', Roboto, Helvetica, Arial, sans-serif" font-size="9.5" font-weight="700" fill="#C77F77" paint-order="stroke" stroke="#FFFFFF" stroke-width="3.2" stroke-linejoin="round">graft</text>
<line x1="316" y1="194" x2="344" y2="198" stroke="#64748B" stroke-width="1"/>
<text x="424" y="226" text-anchor="middle" font-family="-apple-system, 'Segoe UI', Roboto, Helvetica, Arial, sans-serif" font-size="9.5" font-weight="700" fill="#7C3AED" paint-order="stroke" stroke="#FFFFFF" stroke-width="3.2" stroke-linejoin="round">double-J</text>
<text x="422" y="238" text-anchor="middle" font-family="-apple-system, 'Segoe UI', Roboto, Helvetica, Arial, sans-serif" font-size="9.5" font-weight="700" fill="#7C3AED" paint-order="stroke" stroke="#FFFFFF" stroke-width="3.2" stroke-linejoin="round">stent</text>
<line x1="404" y1="228" x2="368" y2="228" stroke="#64748B" stroke-width="1"/>
<path d="M 396 158 L 404 158 M 400 158 L 400 258 M 396 258 L 404 258" fill="none" stroke="#15803D" stroke-width="1.3"/>
<text x="360" y="340" text-anchor="middle" font-family="-apple-system, 'Segoe UI', Roboto, Helvetica, Arial, sans-serif" font-size="10.5" font-weight="600" fill="#1E293B" paint-order="stroke" stroke="#FFFFFF" stroke-width="3.2" stroke-linejoin="round">BMG onlay + stent</text>
<line x1="530" y1="86" x2="530" y2="368" stroke="#E2E8F0" stroke-width="1.3"/>
<text x="544" y="104" text-anchor="start" font-family="-apple-system, 'Segoe UI', Roboto, Helvetica, Arial, sans-serif" font-size="12" font-weight="700" fill="#1E293B">Cross-section</text>
<path d="M 665 222 L 648.8 253.4 L 627 281.1 L 591.7 279.4 L 557.4 271.1 L 544.3 238.3 L 537.6 203.7 L 562 178.2 L 590.7 157.7 L 624.1 169.2 L 654.7 186.9 L 658 222 Z" fill="#F2E3B3" stroke="#CBB668" stroke-width="1.6"/>
<circle cx="600" cy="222" r="40" fill="#475569"/>
<circle cx="600" cy="222" r="31" fill="#E2ECF5" stroke="#7FA3C4" stroke-width="1.5"/>
<path d="M 572 194 A 40 40 0 0 1 628 194" fill="none" stroke="#C77F77" stroke-width="8" stroke-linecap="round"/>
<path d="M 572 194 A 40 40 0 0 1 628 194" fill="none" stroke="#EFC4BE" stroke-width="4.4" stroke-linecap="round"/>
<text x="600" y="166" text-anchor="middle" font-family="-apple-system, 'Segoe UI', Roboto, Helvetica, Arial, sans-serif" font-size="9" font-weight="700" fill="#C77F77" paint-order="stroke" stroke="#FFFFFF" stroke-width="3.2" stroke-linejoin="round">buccal graft</text>
<text x="600" y="226" text-anchor="middle" font-family="-apple-system, 'Segoe UI', Roboto, Helvetica, Arial, sans-serif" font-size="8.5" font-weight="600" fill="#7FA3C4" paint-order="stroke" stroke="#FFFFFF" stroke-width="3.2" stroke-linejoin="round">lumen</text>
<text x="600" y="302" text-anchor="middle" font-family="-apple-system, 'Segoe UI', Roboto, Helvetica, Arial, sans-serif" font-size="9.5" font-weight="700" fill="#CBB668" paint-order="stroke" stroke="#FFFFFF" stroke-width="3.2" stroke-linejoin="round">omental / fat wrap</text>
<text x="600" y="314" text-anchor="middle" font-family="-apple-system, 'Segoe UI', Roboto, Helvetica, Arial, sans-serif" font-size="8.5" font-weight="500" fill="#64748B" paint-order="stroke" stroke="#FFFFFF" stroke-width="3.2" stroke-linejoin="round">feeds the free graft</text>
<text x="600" y="354" text-anchor="middle" font-family="-apple-system, 'Segoe UI', Roboto, Helvetica, Arial, sans-serif" font-size="8.5" font-weight="500" fill="#64748B" paint-order="stroke" stroke="#FFFFFF" stroke-width="3.2" stroke-linejoin="round">dorsal or ventral onlay</text>
</svg>
