<svg xmlns="http://www.w3.org/2000/svg" viewBox="0 0 880 388" width="880" height="388" role="img" aria-label="Coronal section of the urogenital perineum showing its layered architecture between the two ischiopubic rami. From top to bottom: levator ani (pelvic floor) with a midline hiatus; the deep perineal pouch containing the membranous urethra ringed by the rhabdosphincter (the pelvic-fracture urethroplasty plane); the fibrous perineal membrane (roof of the superficial pouch, floor of the deep pouch, and AUS transcorporal landmark); the superficial perineal pouch containing the midline bulb and two lateral crura with their bulbospongiosus and ischiocavernosus muscles (the plane of bulbar urethroplasty and AUS); Colles' fascia (the Fournier's-gangrene spread plane, continuous with dartos and Scarpa's fascia); and skin. A legend tags each layer with its surgical plane.">
<rect x="1" y="1" width="878" height="386" rx="14" fill="#FFFFFF" stroke="#E2E8F0" stroke-width="1.5"/>
<text x="40" y="36" text-anchor="start" font-family="-apple-system, 'Segoe UI', Roboto, Helvetica, Arial, sans-serif" font-size="16" font-weight="700" fill="#1E293B">Layered architecture of the urogenital perineum &#8212; skin to pelvic floor</text>
<text x="40" y="55" text-anchor="start" font-family="-apple-system, 'Segoe UI', Roboto, Helvetica, Arial, sans-serif" font-size="12.5" font-weight="500" fill="#64748B">coronal slice: two fascial pouches separated by the perineal membrane &#8212; each layer is a surgical plane</text>
<path d="M 152 372 L 168 372 L 176 96 L 160 96 Z" fill="#ECE4D4" stroke="#B6A98C" stroke-width="1.4"/>
<path d="M 458 372 L 442 372 L 434 96 L 450 96 Z" fill="#ECE4D4" stroke="#B6A98C" stroke-width="1.4"/>
<text x="140" y="240" text-anchor="middle" font-family="-apple-system, 'Segoe UI', Roboto, Helvetica, Arial, sans-serif" font-size="9" font-weight="700" fill="#B6A98C" paint-order="stroke" stroke="#FFFFFF" stroke-width="3" stroke-linejoin="round">ischio-</text>
<text x="140" y="251" text-anchor="middle" font-family="-apple-system, 'Segoe UI', Roboto, Helvetica, Arial, sans-serif" font-size="9" font-weight="700" fill="#B6A98C" paint-order="stroke" stroke="#FFFFFF" stroke-width="3" stroke-linejoin="round">pubic</text>
<text x="140" y="262" text-anchor="middle" font-family="-apple-system, 'Segoe UI', Roboto, Helvetica, Arial, sans-serif" font-size="9" font-weight="700" fill="#B6A98C" paint-order="stroke" stroke="#FFFFFF" stroke-width="3" stroke-linejoin="round">ramus</text>
<path d="M 170 150 L 170 100 L 289 100 Q 305 126 291 150 Z" fill="#E7B6AC" stroke="#C0705E" stroke-width="1.3"/>
<path d="M 440 150 L 440 100 L 321 100 Q 305 126 319 150 Z" fill="#E7B6AC" stroke="#C0705E" stroke-width="1.3"/>
<rect x="170" y="158" width="270" height="56" fill="#FBF5EF" stroke="#E5D8CB" stroke-width="1.2"/>
<rect x="170" y="216" width="270" height="16" fill="#E0D4B4" stroke="#B0995F" stroke-width="1.2"/>
<line x1="178" y1="218" x2="186" y2="230" stroke="#B0995F" stroke-width="0.8"/>
<line x1="192" y1="218" x2="200" y2="230" stroke="#B0995F" stroke-width="0.8"/>
<line x1="206" y1="218" x2="214" y2="230" stroke="#B0995F" stroke-width="0.8"/>
<line x1="220" y1="218" x2="228" y2="230" stroke="#B0995F" stroke-width="0.8"/>
<line x1="234" y1="218" x2="242" y2="230" stroke="#B0995F" stroke-width="0.8"/>
<line x1="248" y1="218" x2="256" y2="230" stroke="#B0995F" stroke-width="0.8"/>
<line x1="262" y1="218" x2="270" y2="230" stroke="#B0995F" stroke-width="0.8"/>
<line x1="276" y1="218" x2="284" y2="230" stroke="#B0995F" stroke-width="0.8"/>
<line x1="290" y1="218" x2="298" y2="230" stroke="#B0995F" stroke-width="0.8"/>
<line x1="304" y1="218" x2="312" y2="230" stroke="#B0995F" stroke-width="0.8"/>
<line x1="318" y1="218" x2="326" y2="230" stroke="#B0995F" stroke-width="0.8"/>
<line x1="332" y1="218" x2="340" y2="230" stroke="#B0995F" stroke-width="0.8"/>
<line x1="346" y1="218" x2="354" y2="230" stroke="#B0995F" stroke-width="0.8"/>
<line x1="360" y1="218" x2="368" y2="230" stroke="#B0995F" stroke-width="0.8"/>
<line x1="374" y1="218" x2="382" y2="230" stroke="#B0995F" stroke-width="0.8"/>
<line x1="388" y1="218" x2="396" y2="230" stroke="#B0995F" stroke-width="0.8"/>
<line x1="402" y1="218" x2="410" y2="230" stroke="#B0995F" stroke-width="0.8"/>
<line x1="416" y1="218" x2="424" y2="230" stroke="#B0995F" stroke-width="0.8"/>
<line x1="430" y1="218" x2="438" y2="230" stroke="#B0995F" stroke-width="0.8"/>
<rect x="170" y="234" width="270" height="92" fill="#FBF5EF" stroke="#E5D8CB" stroke-width="1.2"/>
<rect x="170" y="328" width="270" height="10" fill="#E3D2BE" stroke="#C2A883" stroke-width="1.2"/>
<rect x="170" y="340" width="270" height="24" fill="#F4E6DA" stroke="#D8C3B6" stroke-width="1.2"/>
<circle cx="305" cy="186" r="17" fill="#E7B6AC" stroke="#C0705E" stroke-width="2"/>
<circle cx="305" cy="186" r="7" fill="#FFFFFF" stroke="#475569" stroke-width="1.4"/>
<ellipse cx="214" cy="284" rx="24" ry="20" fill="#F3DBDC" stroke="#CF9DA3" stroke-width="1.6"/>
<path d="M 190 284 A 24 20 0 0 1 238 284" fill="none" stroke="#C0705E" stroke-width="3.5"/>
<ellipse cx="396" cy="284" rx="24" ry="20" fill="#F3DBDC" stroke="#CF9DA3" stroke-width="1.6"/>
<path d="M 372 284 A 24 20 0 0 1 420 284" fill="none" stroke="#C0705E" stroke-width="3.5"/>
<ellipse cx="305" cy="292" rx="34" ry="26" fill="#F3DBDC" stroke="#CF9DA3" stroke-width="1.8"/>
<path d="M 271 292 A 34 26 0 0 0 339 292" fill="none" stroke="#C0705E" stroke-width="3.5"/>
<circle cx="305" cy="292" r="7" fill="#FFFFFF" stroke="#475569" stroke-width="1.4"/>
<text x="305" y="262" text-anchor="middle" font-family="-apple-system, 'Segoe UI', Roboto, Helvetica, Arial, sans-serif" font-size="8" font-weight="700" fill="#CF9DA3" paint-order="stroke" stroke="#FFFFFF" stroke-width="3" stroke-linejoin="round">bulb</text>
<text x="214" y="260" text-anchor="middle" font-family="-apple-system, 'Segoe UI', Roboto, Helvetica, Arial, sans-serif" font-size="8" font-weight="700" fill="#CF9DA3" paint-order="stroke" stroke="#FFFFFF" stroke-width="3" stroke-linejoin="round">crus</text>
<text x="396" y="260" text-anchor="middle" font-family="-apple-system, 'Segoe UI', Roboto, Helvetica, Arial, sans-serif" font-size="8" font-weight="700" fill="#CF9DA3" paint-order="stroke" stroke="#FFFFFF" stroke-width="3" stroke-linejoin="round">crus</text>
<text x="317" y="296" text-anchor="start" font-family="-apple-system, 'Segoe UI', Roboto, Helvetica, Arial, sans-serif" font-size="7.5" font-weight="600" fill="#475569" paint-order="stroke" stroke="#FFFFFF" stroke-width="3" stroke-linejoin="round">urethra</text>
<line x1="440" y1="125" x2="470" y2="125" stroke="#E2E8F0" stroke-width="1"/>
<circle cx="470" cy="125" r="2.2" fill="#64748B"/>
<text x="478" y="123" text-anchor="start" font-family="-apple-system, 'Segoe UI', Roboto, Helvetica, Arial, sans-serif" font-size="11.5" font-weight="700" fill="#1E293B" paint-order="stroke" stroke="#FFFFFF" stroke-width="3" stroke-linejoin="round">Levator ani (pelvic floor)</text>
<text x="478" y="137" text-anchor="start" font-family="-apple-system, 'Segoe UI', Roboto, Helvetica, Arial, sans-serif" font-size="9.5" font-weight="500" fill="#64748B" paint-order="stroke" stroke="#FFFFFF" stroke-width="3" stroke-linejoin="round">roof; interface with intrapelvic surgery</text>
<line x1="440" y1="186" x2="470" y2="186" stroke="#E2E8F0" stroke-width="1"/>
<circle cx="470" cy="186" r="2.2" fill="#64748B"/>
<text x="478" y="184" text-anchor="start" font-family="-apple-system, 'Segoe UI', Roboto, Helvetica, Arial, sans-serif" font-size="11.5" font-weight="700" fill="#1E293B" paint-order="stroke" stroke="#FFFFFF" stroke-width="3" stroke-linejoin="round">Deep perineal pouch</text>
<text x="478" y="198" text-anchor="start" font-family="-apple-system, 'Segoe UI', Roboto, Helvetica, Arial, sans-serif" font-size="9.5" font-weight="500" fill="#185FA5" paint-order="stroke" stroke="#FFFFFF" stroke-width="3" stroke-linejoin="round">rhabdosphincter / striated UG sphincter — PFUI plane</text>
<line x1="440" y1="226" x2="470" y2="226" stroke="#E2E8F0" stroke-width="1"/>
<circle cx="470" cy="226" r="2.2" fill="#64748B"/>
<text x="478" y="224" text-anchor="start" font-family="-apple-system, 'Segoe UI', Roboto, Helvetica, Arial, sans-serif" font-size="11.5" font-weight="700" fill="#1E293B" paint-order="stroke" stroke="#FFFFFF" stroke-width="3" stroke-linejoin="round">Perineal membrane</text>
<text x="478" y="238" text-anchor="start" font-family="-apple-system, 'Segoe UI', Roboto, Helvetica, Arial, sans-serif" font-size="9.5" font-weight="500" fill="#185FA5" paint-order="stroke" stroke="#FFFFFF" stroke-width="3" stroke-linejoin="round">roof of superficial / floor of deep; AUS landmark</text>
<line x1="440" y1="292" x2="470" y2="292" stroke="#E2E8F0" stroke-width="1"/>
<circle cx="470" cy="292" r="2.2" fill="#64748B"/>
<text x="478" y="290" text-anchor="start" font-family="-apple-system, 'Segoe UI', Roboto, Helvetica, Arial, sans-serif" font-size="11.5" font-weight="700" fill="#1E293B" paint-order="stroke" stroke="#FFFFFF" stroke-width="3" stroke-linejoin="round">Superficial perineal pouch</text>
<text x="478" y="304" text-anchor="start" font-family="-apple-system, 'Segoe UI', Roboto, Helvetica, Arial, sans-serif" font-size="9.5" font-weight="500" fill="#185FA5" paint-order="stroke" stroke="#FFFFFF" stroke-width="3" stroke-linejoin="round">bulb + crura + muscles — bulbar urethroplasty, AUS</text>
<line x1="440" y1="333" x2="470" y2="326" stroke="#E2E8F0" stroke-width="1"/>
<circle cx="470" cy="326" r="2.2" fill="#64748B"/>
<text x="478" y="324" text-anchor="start" font-family="-apple-system, 'Segoe UI', Roboto, Helvetica, Arial, sans-serif" font-size="11.5" font-weight="700" fill="#1E293B" paint-order="stroke" stroke="#FFFFFF" stroke-width="3" stroke-linejoin="round">Colles' fascia</text>
<text x="478" y="338" text-anchor="start" font-family="-apple-system, 'Segoe UI', Roboto, Helvetica, Arial, sans-serif" font-size="9.5" font-weight="500" fill="#185FA5" paint-order="stroke" stroke="#FFFFFF" stroke-width="3" stroke-linejoin="round">Fournier's spread plane; → dartos / Scarpa</text>
<line x1="440" y1="352" x2="470" y2="360" stroke="#E2E8F0" stroke-width="1"/>
<circle cx="470" cy="360" r="2.2" fill="#64748B"/>
<text x="478" y="358" text-anchor="start" font-family="-apple-system, 'Segoe UI', Roboto, Helvetica, Arial, sans-serif" font-size="11.5" font-weight="700" fill="#1E293B" paint-order="stroke" stroke="#FFFFFF" stroke-width="3" stroke-linejoin="round">Skin</text>
<text x="478" y="372" text-anchor="start" font-family="-apple-system, 'Segoe UI', Roboto, Helvetica, Arial, sans-serif" font-size="9.5" font-weight="500" fill="#64748B" paint-order="stroke" stroke="#FFFFFF" stroke-width="3" stroke-linejoin="round">perineal incision</text>
</svg>
