<svg xmlns="http://www.w3.org/2000/svg" viewBox="0 0 820 432" width="820" height="432" role="img" aria-label="Two panels of ureteroenteric anastomosis to an ileal conduit. Bricker: each ureter is anastomosed separately end-to-side to the closed proximal ileum. Wallace: the two ureters are spatulated and joined into a single plate sewn to the open proximal ileal end.">
<rect x="1" y="1" width="818" height="430" rx="14" fill="#FFFFFF" stroke="#E2E8F0" stroke-width="1.5"/>
<text x="40" y="38" text-anchor="start" font-family="-apple-system, 'Segoe UI', Roboto, Helvetica, Arial, sans-serif" font-size="16" font-weight="700" fill="#1E293B">Ureteroenteric anastomosis &#8212; Bricker vs Wallace</text>
<text x="40" y="57" text-anchor="start" font-family="-apple-system, 'Segoe UI', Roboto, Helvetica, Arial, sans-serif" font-size="12.5" font-weight="500" fill="#64748B">how the two ureters are joined to the ileal conduit</text>
<path d="M 124 96 C 128 150, 150 196, 196 218" fill="none" stroke="#C99A7E" stroke-width="14" stroke-linecap="round"/>
<path d="M 124 96 C 128 150, 150 196, 196 218" fill="none" stroke="#F7E7DC" stroke-width="6" stroke-linecap="round"/>
<path d="M 316 96 C 312 158, 290 214, 244 244" fill="none" stroke="#C99A7E" stroke-width="14" stroke-linecap="round"/>
<path d="M 316 96 C 312 158, 290 214, 244 244" fill="none" stroke="#F7E7DC" stroke-width="6" stroke-linecap="round"/>
<path d="M 193 198 Q 193 182 220 182 Q 247 182 247 198 L 247 322 Q 247 338 220 338 Q 193 338 193 322 Z" fill="#E9D6BE" stroke="#B89B7A" stroke-width="1.8"/>
<path d="M 196 228 Q 220 235 244 228" fill="none" stroke="#B89B7A" stroke-width="1" opacity="0.5"/>
<path d="M 196 268 Q 220 275 244 268" fill="none" stroke="#B89B7A" stroke-width="1" opacity="0.5"/>
<path d="M 196 308 Q 220 315 244 308" fill="none" stroke="#B89B7A" stroke-width="1" opacity="0.5"/>
<ellipse cx="220" cy="346" rx="13" ry="8" fill="#E9D6BE" stroke="#B89B7A" stroke-width="1.6"/>
<ellipse cx="220" cy="346" rx="5" ry="3" fill="#CDB69A"/>
<circle cx="195" cy="218" r="7" fill="none" stroke="#185FA5" stroke-width="2"/>
<circle cx="245" cy="244" r="7" fill="none" stroke="#185FA5" stroke-width="2"/>
<text x="220" y="372" text-anchor="middle" font-family="-apple-system, 'Segoe UI', Roboto, Helvetica, Arial, sans-serif" font-size="14" font-weight="700" fill="#1E293B">Bricker</text>
<text x="220" y="391" text-anchor="middle" font-family="-apple-system, 'Segoe UI', Roboto, Helvetica, Arial, sans-serif" font-size="10.8" font-weight="500" fill="#64748B">each ureter sewn separately (end-to-side)</text>
<text x="220" y="408" text-anchor="middle" font-family="-apple-system, 'Segoe UI', Roboto, Helvetica, Arial, sans-serif" font-size="11" font-weight="700" fill="#166534">stricture ~3.7%</text>
<path d="M 504 96 C 514 132, 556 150, 587 166" fill="none" stroke="#C99A7E" stroke-width="14" stroke-linecap="round"/>
<path d="M 504 96 C 514 132, 556 150, 587 166" fill="none" stroke="#F7E7DC" stroke-width="6" stroke-linecap="round"/>
<path d="M 696 96 C 686 132, 644 150, 613 166" fill="none" stroke="#C99A7E" stroke-width="14" stroke-linecap="round"/>
<path d="M 696 96 C 686 132, 644 150, 613 166" fill="none" stroke="#F7E7DC" stroke-width="6" stroke-linecap="round"/>
<path d="M 584 156 L 616 156 L 627 182 L 573 182 Z" fill="#E7C3AE" stroke="#C99A7E" stroke-width="1.6"/>
<line x1="600" y1="158" x2="600" y2="182" stroke="#C99A7E" stroke-width="1.5" stroke-dasharray="3 2"/>
<path d="M 573 182 L 573 322 Q 573 338 600 338 Q 627 338 627 322 L 627 182" fill="#E9D6BE" stroke="#B89B7A" stroke-width="1.8"/>
<path d="M 576 228 Q 600 235 624 228" fill="none" stroke="#B89B7A" stroke-width="1" opacity="0.5"/>
<path d="M 576 268 Q 600 275 624 268" fill="none" stroke="#B89B7A" stroke-width="1" opacity="0.5"/>
<path d="M 576 308 Q 600 315 624 308" fill="none" stroke="#B89B7A" stroke-width="1" opacity="0.5"/>
<ellipse cx="600" cy="346" rx="13" ry="8" fill="#E9D6BE" stroke="#B89B7A" stroke-width="1.6"/>
<ellipse cx="600" cy="346" rx="5" ry="3" fill="#CDB69A"/>
<ellipse cx="600" cy="182" rx="27" ry="6" fill="none" stroke="#185FA5" stroke-width="2"/>
<text x="600" y="372" text-anchor="middle" font-family="-apple-system, 'Segoe UI', Roboto, Helvetica, Arial, sans-serif" font-size="14" font-weight="700" fill="#1E293B">Wallace</text>
<text x="600" y="391" text-anchor="middle" font-family="-apple-system, 'Segoe UI', Roboto, Helvetica, Arial, sans-serif" font-size="10.8" font-weight="500" fill="#64748B">ureters spatulated + joined, sewn as one plate</text>
<text x="600" y="408" text-anchor="middle" font-family="-apple-system, 'Segoe UI', Roboto, Helvetica, Arial, sans-serif" font-size="11" font-weight="700" fill="#991B1B">stricture ~0% &#183; but bilateral if it occurs</text>
<line x1="128" y1="110" x2="150" y2="130" stroke="#475569" stroke-width="1"/>
<circle cx="128" cy="110" r="1.8" fill="#475569"/>
<text x="146" y="134" text-anchor="end" font-family="-apple-system, 'Segoe UI', Roboto, Helvetica, Arial, sans-serif" font-size="10.5" font-weight="600" fill="#1E293B" paint-order="stroke" stroke="#FFFFFF" stroke-width="3.2" stroke-linejoin="round">ureters</text>
<line x1="247" y1="290" x2="312" y2="300" stroke="#475569" stroke-width="1"/>
<circle cx="247" cy="290" r="1.8" fill="#475569"/>
<text x="316" y="304" text-anchor="start" font-family="-apple-system, 'Segoe UI', Roboto, Helvetica, Arial, sans-serif" font-size="10.5" font-weight="600" fill="#1E293B" paint-order="stroke" stroke="#FFFFFF" stroke-width="3.2" stroke-linejoin="round">ileal segment</text>
<line x1="195" y1="218" x2="138" y2="200" stroke="#475569" stroke-width="1"/>
<circle cx="195" cy="218" r="1.8" fill="#475569"/>
<text x="134" y="196" text-anchor="end" font-family="-apple-system, 'Segoe UI', Roboto, Helvetica, Arial, sans-serif" font-size="10.5" font-weight="600" fill="#185FA5" paint-order="stroke" stroke="#FFFFFF" stroke-width="3.2" stroke-linejoin="round">end-to-side</text>
<text x="134" y="210" text-anchor="end" font-family="-apple-system, 'Segoe UI', Roboto, Helvetica, Arial, sans-serif" font-size="10.5" font-weight="600" fill="#185FA5" paint-order="stroke" stroke="#FFFFFF" stroke-width="3.2" stroke-linejoin="round">anastomosis</text>
<line x1="220" y1="346" x2="150" y2="360" stroke="#475569" stroke-width="1"/>
<circle cx="220" cy="346" r="1.8" fill="#475569"/>
<text x="146" y="364" text-anchor="end" font-family="-apple-system, 'Segoe UI', Roboto, Helvetica, Arial, sans-serif" font-size="10.5" font-weight="600" fill="#1E293B" paint-order="stroke" stroke="#FFFFFF" stroke-width="3.2" stroke-linejoin="round">stoma</text>
<line x1="600" y1="182" x2="666" y2="198" stroke="#475569" stroke-width="1"/>
<circle cx="600" cy="182" r="1.8" fill="#475569"/>
<text x="670" y="202" text-anchor="start" font-family="-apple-system, 'Segoe UI', Roboto, Helvetica, Arial, sans-serif" font-size="10.5" font-weight="600" fill="#185FA5" paint-order="stroke" stroke="#FFFFFF" stroke-width="3.2" stroke-linejoin="round">single conjoined</text>
<text x="670" y="216" text-anchor="start" font-family="-apple-system, 'Segoe UI', Roboto, Helvetica, Arial, sans-serif" font-size="10.5" font-weight="600" fill="#185FA5" paint-order="stroke" stroke="#FFFFFF" stroke-width="3.2" stroke-linejoin="round">anastomosis</text>
</svg>
